# xmcd
#
# Track frame offsets:
#	150
#	21158
#	48102
#	67765
#	95328
#	118545
#	146908
#	167445
#	198553
#	210222
#	230488
#	237713
#	260765
#	278939
#	291854
#	311264
#
# Disc length: 4439 seconds
#
# Revision: 0
# Processed by: cddbd v1.5.2PL0 Copyright (c) Steve Scherf et al.
# Submitted via: EasyCDDAExtractor 10.2.0.1
#
DISCID=e4115510
DTITLE=Queen and Paul Rodgers - Return Of The Champions [CD1)
DYEAR=2005
DGENRE=Hard Rock
TTITLE0=There Are The Day Og Our Lives
TTITLE1=Radio Gaga
TTITLE2=Can't Get Enough
TTITLE3=A King Of Magic
TTITLE4=I Want It All
TTITLE5=Bohemian Rhapsody
TTITLE6=The Show Must Go On
TTITLE7=All Right Now
TTITLE8=We Will Rock You
TTITLE9=We Are The Champions
TTITLE10=God Save The Queen
TTITLE11=Somebody To Love
TTITLE12=Under Pressure
TTITLE13=You're My Best Friens
TTITLE14=Too Much Love Will Kill You
TTITLE15=I Was Born To Love You
EXTD=
EXTT0=
EXTT1=
EXTT2=
EXTT3=
EXTT4=
EXTT5=
EXTT6=
EXTT7=
EXTT8=
EXTT9=
EXTT10=
EXTT11=
EXTT12=
EXTT13=
EXTT14=
EXTT15=
PLAYORDER=
